<?xml version="1.0" standalone="no"?>
<!DOCTYPE svg PUBLIC "-//W3C//DTD SVG 20010904//EN"
 "http://www.w3.org/TR/2001/REC-SVG-20010904/DTD/svg10.dtd">
<svg version="1.0" xmlns="http://www.w3.org/2000/svg"
 width="408.000000pt" height="763.000000pt" viewBox="0 0 408.000000 763.000000"
 preserveAspectRatio="xMidYMid meet">

<g transform="translate(0.000000,763.000000) scale(0.100000,-0.100000)"
fill="#000000" stroke="none">
<path d="M2 6978 c3 -598 4 -655 20 -677 13 -18 18 -21 22 -10 2 8 7 23 12 34
4 11 6 25 5 32 -3 24 40 26 65 2 39 -36 102 -30 87 8 -4 9 1 21 10 28 15 11
16 14 2 25 -20 17 -20 79 0 87 21 7 55 -25 55 -52 0 -14 8 -25 20 -28 11 -3
20 -1 20 3 0 5 9 12 21 15 16 5 18 10 8 21 -9 11 -9 17 0 28 9 11 9 15 -1 19
-7 3 2 4 19 4 27 -2 33 -6 33 -23 0 -12 -7 -25 -16 -28 -13 -5 -14 -9 -4 -21
10 -12 9 -15 -6 -15 -15 0 -12 -6 14 -33 18 -18 32 -39 32 -46 0 -9 8 -11 25
-7 14 4 25 2 25 -4 0 -18 46 -11 65 10 16 17 29 20 79 18 46 -2 61 -7 61 -18
0 -10 12 -16 40 -17 56 -4 83 12 79 45 -2 15 -1 19 2 10 7 -22 18 -23 34 -3
11 13 15 13 33 0 24 -17 102 -21 92 -5 -3 6 1 7 9 4 12 -5 16 0 16 20 0 27
-15 36 -22 14 -3 -8 -12 -1 -22 15 -25 37 -15 58 25 53 22 -2 35 -10 41 -25 6
-18 11 -20 28 -11 18 10 22 7 35 -24 17 -40 29 -43 87 -22 21 7 48 11 61 9 14
-3 28 0 31 6 4 6 18 11 32 11 13 0 24 5 24 10 0 6 9 10 20 10 11 0 20 -4 20
-10 0 -5 11 -10 25 -10 14 0 25 -3 26 -7 4 -49 7 -74 10 -76 46 -24 63 -39 61
-49 -6 -21 8 -58 21 -58 34 0 45 24 38 77 -6 39 -4 54 6 57 7 3 13 16 13 29 0
14 7 30 15 37 13 11 22 5 60 -35 24 -27 42 -52 39 -56 -8 -14 11 -18 27 -6 9
7 20 34 25 61 8 43 13 51 38 57 34 9 96 -15 96 -37 0 -8 4 -22 10 -32 5 -9 14
-36 20 -59 12 -47 27 -54 55 -22 19 20 19 20 35 0 15 -20 15 -20 47 9 18 16
27 30 21 32 -20 7 2 28 28 28 15 0 24 -6 24 -15 0 -27 54 -95 72 -91 11 2 15
-1 11 -10 -4 -11 5 -14 36 -14 29 0 41 4 41 14 0 9 7 12 20 9 11 -3 26 -1 33
5 11 9 76 25 105 27 8 0 18 8 23 18 6 9 15 15 21 11 13 -9 58 16 58 32 0 7 9
18 20 24 11 6 20 17 20 25 0 22 9 18 32 -10 11 -14 30 -25 43 -25 13 0 25 -4
27 -10 2 -5 9 -6 17 -1 11 7 8 14 -15 35 -16 14 -23 26 -16 26 6 0 12 -4 12
-9 0 -15 69 -43 90 -36 16 5 20 2 20 -14 0 -23 15 -28 23 -8 4 9 8 8 16 -3 8
-12 17 -7 50 29 23 25 41 41 41 37 0 -4 13 0 28 9 19 12 33 32 41 61 10 34 18
44 35 44 39 0 50 -16 47 -64 -2 -36 1 -47 18 -56 12 -6 20 -16 18 -23 -3 -16
56 -21 82 -8 14 8 22 8 26 1 4 -6 15 -8 25 -5 9 3 30 1 46 -5 19 -8 30 -8 32
-1 5 14 32 2 32 -15 0 -8 10 -14 25 -14 14 0 25 -5 25 -11 0 -5 5 -7 11 -3 8
5 6 10 -5 16 -9 5 -16 14 -16 21 0 6 12 0 26 -14 21 -22 27 -34 33 -68 1 -3 7
3 14 13 12 16 16 17 36 5 19 -12 23 -12 32 4 6 9 20 17 33 17 50 0 97 40 64
53 -10 4 -9 8 2 16 23 17 30 13 30 -16 0 -28 20 -71 20 -45 0 6 9 12 20 12 11
0 20 -4 20 -10 0 -5 9 -10 19 -10 11 0 23 5 26 10 3 6 0 10 -8 10 -8 0 -17 7
-21 15 -6 18 5 20 21 4 6 -6 17 -8 24 -4 9 6 8 11 -5 21 -24 17 -13 32 29 40
19 3 35 10 35 14 0 4 14 13 30 19 31 10 42 45 18 54 -7 3 -3 6 8 6 12 1 27 8
34 16 7 8 16 15 21 15 5 0 9 -7 9 -15 0 -8 6 -15 13 -15 8 0 7 -4 -3 -10 -13
-9 -13 -10 1 -10 8 0 26 -11 39 -25 31 -33 41 -32 78 10 l32 34 0 556 0 555
-2040 0 -2040 0 2 -652z m670 -473 c-5 -28 -32 -46 -56 -39 -31 9 -39 20 -31
43 5 17 13 20 48 18 36 -2 42 -5 39 -22z m2628 -79 c0 -3 -4 -8 -10 -11 -5 -3
-10 -1 -10 4 0 6 5 11 10 11 6 0 10 -2 10 -4z m-1797 -43 c-13 -2 -33 -2 -45
0 -13 2 -3 4 22 4 25 0 35 -2 23 -4z m957 -24 c0 -5 -9 -9 -20 -9 -19 0 -26
11 -14 23 8 8 34 -3 34 -14z"/>
<path d="M2950 6442 c0 -7 -7 -12 -16 -12 -8 0 -12 -5 -8 -11 4 -7 11 -6 22 5
9 8 13 19 9 22 -4 4 -7 2 -7 -4z"/>
<path d="M4040 6410 c-8 -5 -31 -10 -51 -10 -33 0 -37 -3 -41 -29 -4 -27 -2
-28 28 -26 21 2 34 -2 38 -11 3 -8 15 -14 26 -14 11 0 20 -5 20 -11 0 -6 -7
-8 -16 -5 -9 4 -23 1 -30 -5 -11 -9 -14 -9 -14 0 0 7 -4 9 -10 6 -21 -13 -8
-35 28 -44 63 -18 62 -19 62 74 0 87 -5 97 -40 75z"/>
<path d="M2978 6403 c12 -2 32 -2 45 0 12 2 2 4 -23 4 -25 0 -35 -2 -22 -4z"/>
<path d="M2978 6383 c12 -2 32 -2 45 0 12 2 2 4 -23 4 -25 0 -35 -2 -22 -4z"/>
<path d="M2961 6366 c2 -2 31 -6 64 -9 37 -3 51 -2 35 3 -25 8 -107 13 -99 6z"/>
<path d="M2500 6337 c0 -27 12 -47 27 -47 21 0 13 54 -9 58 -11 2 -18 -3 -18
-11z"/>
<path d="M2560 6325 c0 -8 7 -15 15 -15 8 0 15 7 15 15 0 8 -7 15 -15 15 -8 0
-15 -7 -15 -15z"/>
<path d="M1892 6255 c-12 -5 -20 -16 -17 -23 3 -8 5 -20 5 -28 0 -8 7 -14 15
-14 8 0 15 5 15 10 0 6 12 15 26 20 25 10 25 30 -1 30 -7 0 -15 3 -17 8 -1 4
-13 3 -26 -3z"/>
<path d="M2057 6233 c-12 -11 -8 -23 8 -23 8 0 15 -4 15 -10 0 -5 -5 -10 -11
-10 -5 0 -7 -4 -4 -10 8 -13 42 -13 50 -1 3 5 -5 21 -18 35 -26 28 -30 30 -40
19z"/>
<path d="M1183 6169 c-2 -24 1 -30 13 -25 9 3 20 6 25 6 5 0 9 5 9 10 0 6 -7
10 -15 10 -8 0 -15 7 -15 15 0 29 -15 15 -17 -16z"/>
<path d="M1423 6164 c-8 -21 14 -34 60 -34 33 0 37 3 37 25 0 23 -4 25 -45 25
-33 0 -47 -5 -52 -16z"/>
<path d="M1904 6030 c-23 -9 -38 -36 -24 -45 14 -9 60 13 60 29 0 20 -11 25
-36 16z"/>
<path d="M2310 5950 c0 -15 21 -23 32 -12 6 6 2 11 -11 15 -12 3 -21 1 -21 -3z"/>
<path d="M1985 5461 c-6 -11 9 -23 19 -14 9 9 7 23 -3 23 -6 0 -12 -4 -16 -9z"/>
<path d="M2320 5107 c0 -18 -75 -33 -115 -23 -14 4 -41 0 -62 -9 -21 -9 -65
-25 -98 -36 -33 -12 -74 -29 -91 -40 -17 -10 -38 -19 -45 -19 -8 0 -30 -14
-49 -32 -48 -44 -117 -80 -126 -66 -7 11 -43 -28 -44 -47 0 -5 -19 -21 -41
-34 -69 -39 -228 -195 -229 -223 0 -10 -6 -22 -12 -27 -69 -56 -87 -76 -94
-104 -3 -17 -10 -38 -15 -47 -38 -68 -59 -145 -59 -213 0 -70 -30 -217 -49
-241 -5 -6 -12 -31 -16 -56 -6 -35 -19 -56 -61 -100 -29 -31 -61 -74 -70 -95
-9 -22 -22 -44 -29 -50 -16 -13 -33 -72 -31 -105 2 -14 8 -42 15 -62 7 -22 13
-108 14 -225 2 -156 5 -193 19 -217 10 -18 15 -40 11 -57 -4 -23 1 -72 24
-196 2 -15 7 -49 10 -75 l5 -47 -66 -41 c-36 -23 -80 -59 -97 -81 -32 -40 -71
-66 -109 -72 -12 -2 -31 -12 -42 -22 -17 -14 -25 -15 -40 -6 -24 15 -43 14
-57 -3 -10 -12 -8 -19 9 -36 12 -12 19 -29 17 -38 -2 -9 2 -28 9 -42 11 -23 8
-32 -25 -88 -45 -73 -69 -102 -88 -102 -9 0 -13 -17 -13 -63 0 -61 -2 -66 -41
-108 -23 -24 -46 -55 -52 -69 -6 -14 -11 -81 -12 -150 -1 -137 -4 -151 -34
-201 -23 -38 -21 -85 6 -128 20 -31 19 -85 -3 -161 -11 -40 -15 -78 -11 -115
3 -30 1 -70 -4 -88 -5 -17 -10 -86 -10 -152 -1 -66 -6 -126 -11 -132 -6 -7 -7
-13 -4 -13 4 0 1 -10 -5 -22 -6 -12 -16 -58 -21 -102 -5 -49 -17 -94 -29 -115
-17 -29 -22 -58 -25 -151 -4 -77 -10 -122 -20 -137 -19 -29 -19 -102 0 -109 9
-3 17 -27 22 -60 l6 -54 1874 0 1874 0 -2 1124 c-3 1054 -4 1125 -20 1143 -10
11 -18 34 -18 52 0 19 -4 30 -10 26 -5 -3 -24 10 -41 29 -16 19 -46 41 -65 48
-19 6 -34 16 -34 20 0 4 -7 8 -16 8 -8 0 -39 16 -68 35 -41 27 -65 36 -109 39
-94 6 -113 42 -52 103 19 19 35 38 35 41 0 3 6 13 14 21 35 41 77 211 57 235
-5 6 -12 34 -14 62 -2 27 -9 59 -15 70 -6 11 -9 30 -6 41 3 12 1 24 -5 27 -6
4 -11 16 -11 26 0 10 -6 23 -14 27 -8 4 -28 25 -45 47 -29 36 -31 44 -31 121
0 78 1 83 33 121 38 43 71 131 81 212 6 46 2 65 -29 145 -53 134 -72 173 -99
200 -32 32 -85 140 -97 199 -6 27 -16 54 -22 61 -7 6 -23 28 -36 48 -13 19
-37 41 -53 48 -29 13 -30 15 -26 76 2 35 0 61 -4 59 -3 -2 -8 4 -10 13 -2 10
-12 18 -22 18 -13 0 -23 11 -29 30 -5 17 -25 47 -43 68 -19 20 -34 41 -34 45
0 13 -197 221 -204 215 -10 -10 -45 18 -48 38 -5 32 -47 59 -103 65 -28 4 -90
25 -140 49 -111 53 -120 55 -277 62 -111 4 -128 3 -128 -10z m566 -874 c20
-22 25 -35 21 -59 -3 -18 -1 -36 4 -41 5 -5 10 -27 10 -49 2 -70 5 -67 -58
-60 -149 18 -154 18 -171 3 -24 -22 -101 -47 -144 -47 -20 0 -40 -4 -43 -10
-3 -5 -15 -10 -25 -10 -10 0 -20 -5 -22 -11 -2 -6 -12 -7 -26 -2 l-23 9 26 29
c14 17 34 48 45 71 11 22 39 61 63 86 37 41 49 47 97 53 30 4 70 16 89 26 18
11 42 17 52 14 10 -4 29 1 41 9 30 21 35 20 64 -11z m-783 -85 c13 -11 14 -16
4 -29 -18 -23 -53 -40 -71 -33 -9 3 -16 1 -16 -5 0 -6 7 -11 17 -11 14 0 15
-2 1 -17 -8 -10 -18 -26 -22 -37 -6 -17 -14 -18 -84 -13 -42 3 -84 9 -93 12
-17 6 -16 17 12 91 8 23 49 34 129 34 25 0 52 5 60 10 21 13 43 12 63 -2z
m-340 -205 c-14 -5 -18 -33 -5 -33 4 0 15 -7 25 -15 18 -13 18 -15 2 -49 -20
-41 -14 -66 15 -66 11 0 20 -4 20 -9 0 -5 30 -24 66 -41 58 -27 78 -31 153
-32 77 -1 91 2 136 27 68 38 72 41 79 75 4 25 15 34 61 55 31 13 61 22 68 19
7 -2 26 -30 41 -60 42 -83 75 -94 269 -94 84 0 169 5 189 10 32 9 42 8 65 -9
44 -31 67 -33 91 -10 27 24 68 34 78 18 10 -18 19 -87 18 -149 -1 -102 -13
-280 -19 -290 -13 -22 -35 -124 -35 -165 0 -24 -4 -46 -9 -50 -6 -3 -13 -26
-17 -51 -4 -32 -16 -56 -37 -77 -17 -18 -35 -31 -39 -30 -4 2 -5 -3 -2 -11 3
-8 -5 -24 -18 -37 -13 -13 -32 -45 -43 -70 -17 -41 -22 -45 -54 -47 -20 -2
-51 -10 -70 -19 -32 -15 -37 -14 -68 2 -18 10 -33 23 -33 30 0 7 -9 20 -20 30
-18 16 -21 16 -44 1 -15 -10 -27 -12 -31 -6 -3 6 -21 7 -38 4 -58 -10 -202
-12 -219 -2 -14 6 -18 5 -18 -7 0 -8 7 -15 15 -15 9 0 32 -11 53 -24 31 -19
52 -24 112 -25 85 -1 140 -10 140 -21 0 -4 10 -10 21 -13 19 -5 21 -11 17 -52
-4 -27 -14 -54 -25 -64 -22 -20 -95 -41 -150 -41 -21 -1 -56 -8 -78 -16 -36
-15 -151 -40 -216 -48 -71 -9 -65 -51 17 -117 11 -8 50 -26 87 -39 77 -27 124
-65 119 -95 -3 -11 -9 -23 -14 -26 -5 -4 -3 -12 6 -21 13 -13 4 -16 -82 -23
-180 -14 -220 -9 -377 53 -41 16 -85 49 -85 64 0 9 -33 50 -71 87 -14 14 -52
55 -85 90 l-59 63 -1 222 c-1 293 -20 391 -89 451 -34 29 -34 31 -24 70 6 22
12 127 15 234 4 195 14 257 49 301 7 8 15 37 19 63 7 61 24 96 37 76 6 -10 9
-11 9 -1 0 6 6 12 13 12 6 0 21 8 32 17 16 13 17 15 3 10 -19 -7 -22 1 -12 26
4 12 11 10 32 -10 18 -17 23 -27 15 -30z m1217 -1323 c31 -31 30 -107 -1 -151
-10 -15 -19 -32 -19 -38 0 -6 -4 -11 -9 -11 -5 0 -11 -14 -15 -31 -13 -68 -43
-118 -80 -133 -20 -8 -36 -19 -36 -25 0 -5 -20 -17 -44 -26 -43 -17 -44 -17
-84 10 -23 15 -45 24 -51 21 -5 -4 -12 -2 -16 4 -3 5 -13 10 -21 10 -8 0 -13
-4 -10 -9 3 -5 -3 -11 -14 -14 -14 -4 -20 0 -20 11 1 43 57 98 109 108 17 4
34 11 37 15 3 5 14 9 25 9 15 0 19 7 19 38 1 41 13 63 47 81 19 10 95 106 84
106 -3 0 2 10 10 23 18 28 62 29 89 2z m-460 -361 c0 -15 -26 -39 -42 -39 -7
0 -2 9 11 19 18 14 21 20 10 24 -10 4 -9 6 4 6 9 1 17 -4 17 -10z m-58 -67
c-7 -2 -10 -8 -6 -13 3 -5 -3 -9 -12 -9 -15 0 -16 2 -2 18 9 9 13 24 11 32 -2
8 1 6 8 -4 9 -15 9 -21 1 -24z m40 -3 c-14 -5 -20 -13 -16 -20 4 -8 3 -9 -4
-5 -18 11 -2 36 22 35 20 0 20 -1 -2 -10z"/>
<path d="M2415 3291 c-16 -4 -42 -14 -56 -22 -22 -11 -25 -18 -18 -36 5 -13
13 -23 19 -23 6 0 20 -9 32 -20 33 -31 74 -26 115 15 26 26 34 41 31 62 -3 26
-7 28 -48 30 -25 1 -58 -2 -75 -6z"/>
<path d="M2278 2987 c-21 -6 -38 -16 -38 -22 0 -28 262 -55 319 -33 29 10 26
32 -6 48 -35 16 -225 21 -275 7z"/>
<path d="M3505 4868 c1 -13 5 -22 8 -20 4 1 18 2 32 2 18 0 25 5 25 20 0 16
-7 20 -33 20 -29 0 -33 -3 -32 -22z"/>
<path d="M3475 4580 c3 -5 17 -10 31 -10 13 0 24 5 24 10 0 6 -14 10 -31 10
-17 0 -28 -4 -24 -10z"/>
</g>
</svg>
